# xmcd
#
# Track frame offsets: 
#        150
#        14577
#        33358
#        51826
#        67546
#        88590
#        106686
#        126959
#        142281
#        161958
#        180199
#        196228
#        211039
#        225765
#        243804
#        261198
#        278648
#        295042
#        313548
#        329792
#
# Disc length: 4608 seconds
#
# Revision: 1
# Processed by: cddbd v1.4PL0 Copyright (c) Steve Scherf et al.
# Submitted via: ExactAudioCopy v0.90b2
#
DISCID=1011fe14
DTITLE=Various Artist - Kuschelrock 15 CD 1
DYEAR=2001
DGENRE=blues
TTITLE0=Atomic Kitten - Eternal Flame
TTITLE1=O-Town - All Or Nothing
TTITLE2=Jon Bon Jovi - Thank You For Loving Me
TTITLE3=Melanie Thornton - Love How You Love Me
TTITLE4=Mariah Carey Feat. Boyz II Men - One Sweet Day
TTITLE5=Lil' Kim Feat. Phil Collins - In The Air Tonite
TTITLE6=Brandy and Ray J - Another Day In Paradise
TTITLE7=Lionel Richie and Juliette - The One
TTITLE8=Aerosmith - Fly Away From Here
TTITLE9=Roxette - Milk And Toast And Honey
TTITLE10=Bosson - One In A Million
TTITLE11=Nicole da Silva - I Miss You
TTITLE12=No Angels - That's The Reason
TTITLE13=Emma Bunton - What Took You So Long?
TTITLE14=Ronan Keating - The Way You Make Me Feel
TTITLE15=Band Ohne Namen - Slipping Into You
TTITLE16=Laith Al-Deen - Bilder von Dir
TTITLE17=Dido - Here With Me
TTITLE18=Enya - Only Time
TTITLE19=Sasha - Why Does Everybody Hurt
EXTD=
EXTT0=
EXTT1=
EXTT2=
EXTT3=
EXTT4=
EXTT5=
EXTT6=
EXTT7=
EXTT8=
EXTT9=
EXTT10=
EXTT11=
EXTT12=
EXTT13=
EXTT14=
EXTT15=
EXTT16=
EXTT17=
EXTT18=
EXTT19=
PLAYORDER=
